<?xml version="1.0" encoding="iso-8859-1"?>
<!-- Generator: Adobe Illustrator 21.0.0, SVG Export Plug-In . SVG Version: 6.00 Build 0)  -->
<svg xmlns="http://www.w3.org/2000/svg" xmlns:xlink="http://www.w3.org/1999/xlink" version="1.1" id="Capa_1" x="0px" y="0px" viewBox="0 0 516.179 516.179" style="enable-background:new 0 0 516.179 516.179;" xml:space="preserve" width="512" height="512">
<g>
	<path d="M17.09,95.09c8.284,0,15-6.716,15-15V32.089h47.996c8.284,0,15-6.716,15-15s-6.716-15-15-15H17.09c-8.284,0-15,6.716-15,15   V80.09C2.09,88.374,8.806,95.09,17.09,95.09z"/>
	<path d="M436.093,32.089h47.996V80.09c0,8.284,6.716,15,15,15s15-6.716,15-15V17.089c0-8.284-6.716-15-15-15h-62.996   c-8.284,0-15,6.716-15,15S427.809,32.089,436.093,32.089z"/>
	<path d="M80.086,484.09H32.09v-48.001c0-8.284-6.716-15-15-15s-15,6.716-15,15v63.001c0,8.284,6.716,15,15,15h62.996   c8.284,0,15-6.716,15-15S88.37,484.09,80.086,484.09z"/>
	<path d="M499.089,421.089c-8.284,0-15,6.716-15,15v48.001h-47.996c-8.284,0-15,6.716-15,15s6.716,15,15,15h62.996   c8.284,0,15-6.716,15-15v-63.001C514.089,427.805,507.373,421.089,499.089,421.089z"/>
	<rect x="98.089" y="379.09" width="33" height="33"/>
	<path d="M467.591,233.088V64.291c0-8.635-7.065-15.701-15.701-15.701H64.18c-8.636,0-15.701,7.065-15.701,15.701v168.797h215.61   V204.09c0-8.284,6.716-15,15-15s15,6.716,15,15v28.998H467.591z M68.089,89.089c0-8.284,6.716-15,15-15h63c8.284,0,15,6.716,15,15   v63c0,8.284-6.716,15-15,15h-63c-8.284,0-15-6.716-15-15V89.089z M194.089,213.09H83.087c-8.284,0-15-6.716-15-15s6.716-15,15-15   h111.002c8.284,0,15,6.716,15,15S202.373,213.09,194.089,213.09z M250.089,210.089c0,8.284-6.716,15-15,15s-15-6.716-15-15v-21   c0-8.284,6.716-15,15-15s15,6.716,15,15V210.089z M267.089,139.09c0,8.284-6.716,15-15,15s-15-6.716-15-15v-14.001h-34v7   c0,8.284-6.716,15-15,15s-15-6.716-15-15v-43c0-8.284,6.716-15,15-15s15,6.716,15,15v6h34v-6c0-8.284,6.716-15,15-15   s15,6.716,15,15V139.09z M355.089,89.089c0-8.284,6.716-15,15-15h63c8.284,0,15,6.716,15,15v63c0,8.284-6.716,15-15,15h-63   c-8.284,0-15-6.716-15-15V89.089z M355.089,184.09h75.001c8.284,0,15,6.716,15,15s-6.716,15-15,15h-75.001c-8.284,0-15-6.716-15-15   S346.805,184.09,355.089,184.09z M292.089,168.09V89.089c0-8.284,6.716-15,15-15s15,6.716,15,15v79.001c0,8.284-6.716,15-15,15   S292.089,176.374,292.089,168.09z"/>
	<rect x="385.089" y="104.089" width="33" height="33"/>
	<rect x="98.089" y="104.089" width="33" height="33"/>
	<path d="M15,293.089h33.479v158.799c0,8.636,7.065,15.701,15.701,15.701h387.71c8.636,0,15.701-7.065,15.701-15.701V293.089h33.588   c8.284,0,15-6.716,15-15s-6.716-15-15-15H15c-8.284,0-15,6.716-15,15S6.716,293.089,15,293.089z M132.089,293.089v28   c0,8.284-6.716,15-15,15s-15-6.716-15-15v-28H132.089z M161.089,427.09c0,8.284-6.716,15-15,15h-63c-8.284,0-15-6.716-15-15v-63   c0-8.284,6.716-15,15-15h63c8.284,0,15,6.716,15,15V427.09z M204.089,395.089c0,8.284-6.716,15-15,15s-15-6.716-15-15V351.09   c0-8.284,6.716-15,15-15s15,6.716,15,15V395.089z M224.089,387.089c0-8.284,6.716-15,15-15h13.001c8.284,0,15,6.716,15,15   s-6.716,15-15,15h-13.001C230.805,402.089,224.089,395.373,224.089,387.089z M317.089,427.09c0,8.284-6.716,15-15,15h-45   c-8.284,0-15-6.716-15-15s6.716-15,15-15h30v-62.001c0-8.284,6.716-15,15-15s15,6.716,15,15V427.09z M327.089,355.09   c0-8.284,6.716-15,15-15h13.001c8.284,0,15,6.716,15,15s-6.716,15-15,15h-13.001C333.805,370.09,327.089,363.374,327.089,355.09z    M440.089,427.09c0,8.284-6.716,15-15,15s-15-6.716-15-15v-15h-50c-8.284,0-15-6.716-15-15s6.716-15,15-15h50v-45   c0-8.284,6.716-15,15-15s15,6.716,15,15V427.09z M380.089,317.089c0,8.284-6.716,15-15,15s-15-6.716-15-15v-24h30V317.089z    M294.089,305.089c0,8.284-6.716,15-15,15h-94c-8.284,0-15-6.716-15-15c0-4.915,2.375-9.264,6.027-12h117.973V305.089z"/>
</g>















</svg>
