<svg id="Layer_1" enable-background="new 0 0 512 512" height="512" viewBox="0 0 512 512" width="512" xmlns="http://www.w3.org/2000/svg"><g><path d="m180 292c0 60.75-38.053 110-85 110s-85-49.25-85-110c0-13.36 1.834-26.16 5.207-38h159.585c3.374 11.84 5.208 24.64 5.208 38z" fill="#fff"/><path d="m155 502h-120c0-22.09 17.91-40 40-40v-63.07c6.41 2.01 13.11 3.07 20 3.07s13.59-1.06 20-3.07v63.07c11.04 0 21.04 4.48 28.28 11.72s11.72 17.24 11.72 28.28z" fill="#fff"/><path d="m168.3 347.72c-14.77 32.48-42.06 54.28-73.3 54.28-31.29 0-58.62-21.87-73.38-54.44 2.46-1.3 42.24-21.74 73.38.06 30.84 21.59 70.16 1.75 73.3.1z" fill="#ff7b79"/><path d="m502 163c0-84.689-68.808-153.308-153.569-152.999-82.942.302-151.017 67.454-152.409 150.385-.22 13.092 1.215 25.812 4.093 37.975l-25.322 55.639h43.207v108c0 11.046 8.954 20 20 20h52v40h134s-6.538-50.272 0-65.205c38-86.795 78-69.145 78-193.795z" fill="#ffdcd5"/><path d="m444 502h-198l24-40h174z" fill="#a0c8ff"/><path d="m444 462h-174l-24-40h198z" fill="#fff"/><path d="m488.77 288c-59.136 0-117.573-123.405-117.573-123.405-85.699 0-166.198-53.467-166.198-53.467 21.332-58.724 77.668-100.887 143.305-101.127 84.769-.31 153.586 68.396 153.586 153.192.002 26.664 2.192 75.926-13.12 124.807z" fill="#ddb9b6"/><path d="m183.115 111h318.885v87h-318.885z" fill="#fff"/><g><path d="m423.9 353.44c-.56-.09-1.13-.14-1.69-.14-2.44 0-4.69.87-6.44 2.35-1.75 1.47-2.99 3.55-3.41 5.96-.45 2.64.15 5.29 1.7 7.47 1.54 2.18 3.84 3.63 6.47 4.08.56.09 1.13.14 1.7.14 4.88 0 9.02-3.49 9.84-8.31.93-5.44-2.73-10.62-8.17-11.55z"/><path d="m502 101h-2.225c-.199-.482-.381-.969-.585-1.45-4.09-9.66-9.14-18.97-15.03-27.69-5.83-8.63-12.53-16.74-19.9-24.12-7.38-7.38-15.49-14.07-24.13-19.9-8.71-5.89-18.02-10.95-27.68-15.03-20.1-8.5-41.44-12.81-63.45-12.81h-.78c-21.6.11-42.59 4.42-62.4 12.8-9.52 4.03-18.72 9.01-27.34 14.8-8.54 5.73-16.59 12.31-23.92 19.55s-14 15.2-19.84 23.66c-5.9 8.55-10.99 17.69-15.14 27.16-.484 1.107-.975 2.104-1.47 3.03h-15c-5.523 0-10 4.478-10 10v87c0 5.522 4.477 10 10 10h1.631l-16.384 36h-153.149c-4.468 0-8.393 2.964-9.617 7.26-3.71 13.02-5.591 26.727-5.591 40.74 0 31.583 9.583 61.378 26.982 83.896 10.778 13.948 23.771 24.137 38.018 30.069v47.04c-22.794 4.645-40 24.849-40 48.995 0 5.522 4.477 10 10 10h120c5.523 0 10-4.478 10-10 0-13.35-5.202-25.904-14.649-35.352-7.043-7.042-15.813-11.726-25.351-13.653v-47.03c14.247-5.932 27.24-16.121 38.018-30.069 17.399-22.518 26.982-52.313 26.982-83.896 0-9.516-.889-18.885-2.607-28h20.607v98c0 8.02 3.12 15.55 8.79 21.21 5.66 5.67 13.19 8.79 21.21 8.79h42v20h-34c-3.603 0-6.927 1.938-8.702 5.073s-1.727 6.982.127 10.071l20.914 34.856-20.913 34.855c-1.854 3.089-1.902 6.937-.127 10.071 1.775 3.136 5.1 5.073 8.702 5.073h198c5.523 0 10-4.478 10-10v-80c0-5.522-4.477-10-10-10h-11.062c-.144-1.422-.296-2.991-.448-4.68-.23-2.5-1.38-4.8-3.23-6.49-2.07-1.89-4.84-2.82-7.63-2.56-5.49.49-9.56 5.37-9.06 10.86.08.89.17 1.83.27 2.87h-112.841v-30c0-2.63-1.07-5.21-2.93-7.07s-4.44-2.93-7.07-2.93h-52c-5.5-.01-9.99-4.5-10-10v-36.184c.22.001.429.003.653.003 13.771 0 35.383-1.484 46.075-9.995 4.321-3.439 5.036-9.731 1.596-14.052-3.44-4.322-9.731-5.036-14.052-1.597-5.136 4.088-21.044 5.611-34.272 5.617v-51.791c0-2.63-1.07-5.21-2.93-7.07s-4.44-2.93-7.07-2.93h-27.67l16.386-36h154.651c.623 10.062-2.833 28.292-32.622 38.544-5.222 1.798-7.999 7.488-6.201 12.71 1.426 4.145 5.304 6.749 9.455 6.749 1.079 0 2.177-.177 3.255-.547 30.786-10.596 41.216-29.074 44.544-42.71 1.323-5.422 1.639-10.468 1.49-14.746h2.465c18.516 30.166 43.399 63.206 70.986 79.58-6.59 8.45-13.98 18.03-21.54 30.14-1.42 2.26-1.86 4.94-1.26 7.55.6 2.6 2.18 4.81 4.45 6.22 1.59.99 3.42 1.52 5.28 1.52 3.48 0 6.66-1.76 8.5-4.71 7.27-11.67 14.39-20.79 21.27-29.61 0 0 1.79-2.29 2.2-2.82 5 1.39 10.04 2.13 15.13 2.13 4.37 0 7.455-3.172 9.54-7.01 10.316-18.99 13.691-92.336 13.691-92.99v-13.91-73.09c0-5.522-4.477-10-10-10zm-68 391h-170.338l12-20h158.338zm0-60v20h-158.338l-12-20zm-411.005-168h144.01c1.99 9.043 2.995 18.43 2.995 28 0 17.504-3.395 33.97-9.346 48.296-9.255 4.123-37.788 14.625-59.919-.868-26.721-18.707-57.808-11.172-73.698-5.167-4.511-12.845-7.037-27.166-7.037-42.261 0-9.57 1.005-18.957 2.995-28zm92.005 208c8.007 0 15.54 3.122 21.209 8.791 3.22 3.22 5.618 7.041 7.089 11.209h-96.585c4.127-11.641 15.249-20 28.287-20 5.523 0 10-4.478 10-10v-50.651c3.298.429 6.634.651 10 .651s6.702-.222 10-.651v50.651c0 5.522 4.477 10 10 10zm-20-80c-24.304 0-45.941-15.498-59.655-39.467 12.452-4.488 35.376-9.703 53.92 3.279 12.712 8.899 26.433 11.845 39.036 11.844 6.051 0 11.839-.683 17.136-1.709-13.329 16.178-31.034 26.053-50.437 26.053zm98.11-204v-67h298.89s-.007 66.508-.009 66.973v.027zm155.36-168h.53c38.19 0 74.1 14.88 101.12 41.88 11.573 11.581 20.913 24.792 27.817 39.12h-257.641c23.21-47.647 72.161-80.82 128.174-81zm58.95 188h84.12c-1.12 26.29-4.36 48.67-10.02 69.21-4.68-1-9.56-2.92-14.62-5.72-18.34-10.19-38.89-32.03-59.48-63.49z"/></g></g></svg>